Coordinates
version=1
nRows=4
nColumns=63
inDegrees=yes

Units are S.I. units (second, meters, Newtons, ...)
If the header above contains a line with 'inDegrees', this indicates whether rotational values are in degrees (yes) or radians (no).

endheader
time	pelvis_tilt	pelvis_list	pelvis_rotation	pelvis_tx	pelvis_ty	pelvis_tz	hip_flexion_r	hip_adduction_r	hip_rotation_r	knee_angle_r	knee_angle_r_beta	ankle_angle_r	subtalar_angle_r	mtp_angle_r	hip_flexion_l	hip_adduction_l	hip_rotation_l	knee_angle_l	knee_angle_l_beta	ankle_angle_l	subtalar_angle_l	mtp_angle_l	L5_S1_Flex_Ext	L5_S1_Lat_Bending	L5_S1_axial_rotation	L4_L5_Flex_Ext	L4_L5_Lat_Bending	L4_L5_axial_rotation	L3_L4_Flex_Ext	L3_L4_Lat_Bending	L3_L4_axial_rotation	L2_L3_Flex_Ext	L2_L3_Lat_Bending	L2_L3_axial_rotation	L1_L2_Flex_Ext	L1_L2_Lat_Bending	L1_L2_axial_rotation	L1_T12_Flex_Ext	L1_T12_Lat_Bending	L1_T12_axial_rotation	Abs_r3	Abs_r2	Abs_r1	Abs_t1	Abs_t2	neck_flexion	neck_bending	neck_rotation	arm_flex_r	arm_add_r	arm_rot_r	elbow_flex_r	pro_sup_r	wrist_flex_r	wrist_dev_r	arm_flex_l	arm_add_l	arm_rot_l	elbow_flex_l	pro_sup_l	wrist_flex_l	wrist_dev_l
      0.00000000	      6.97893080	     -4.40990617	     81.97344523	      0.50417270	      0.59745909	      0.67350291	      0.63791253	      4.76053167	     18.35128963	      0.54774174	      0.00955990	     26.78154447	     -7.20860808	      0.00000000	      5.95757471	     -5.74409313	     -5.66015225	     15.79872684	      0.27573980	     32.14732704	    -12.29840333	      0.00000000	      0.10038906	      0.31860752	      1.43996968	      0.18643253	      0.42374800	      1.52996778	      0.16492919	      0.77466233	      1.52996778	      0.11473466	      0.77466233	      1.25997347	      0.09322128	      0.64970446	      1.16997536	      0.05736231	      0.49352305	      1.07997726	      0.71706904	      3.60415200	      8.00867936	      0.00000000	      0.00000000	     22.73116889	     -4.75237972	     -2.22844094	     16.05752141	      2.93277943	     68.51865913	     33.09597843	      1.78113814	    -23.71669474	     16.17179361	     21.47336776	      5.23954140	     93.06730741	     29.40863744	     38.99260586	     -4.03998635	     10.28514703
      0.02040816	      7.11928955	     -4.67138507	     82.12256647	      0.50270516	      0.59657961	      0.67344499	      0.79134123	      4.82810453	     18.75842463	      0.58849076	      0.01027110	     26.08973597	     -8.62081344	      0.00000000	      6.41356312	     -5.71657950	     -4.30334535	     15.78250200	      0.27545662	     33.44513575	    -12.00889718	      0.00000000	      0.10774901	      0.37109833	      1.31700958	      0.20010069	      0.49356078	      1.39932268	      0.17702086	      0.90228849	      1.39932268	      0.12314635	      0.90228849	      1.15238338	      0.10005573	      0.75674372	      1.07007028	      0.06156779	      0.57483132	      0.98775718	      0.76964044	      4.19793858	      7.32481218	      0.00000000	      0.00000000	     23.11845805	     -5.20631248	     -0.55667675	     16.86461425	      3.00914599	     74.17248421	     32.35254529	      2.20143074	    -20.20169624	     14.14558421	     22.37122333	      5.74544643	     93.90384344	     29.05598697	     44.52637973	     -4.75265246	      7.49768227
      0.04081633	      7.14851735	     -4.90209222	     82.00070791	      0.50238895	      0.59565967	      0.67309004	      0.92091122	      4.86580511	     20.94171033	      0.59432968	      0.01037301	     25.03473415	    -12.20059462	      0.00000000	      6.65124018	     -5.69156804	     -3.78015884	     15.66166375	      0.27334760	     34.22745398	    -11.69361801	      0.00000000	      0.12627479	      0.40351087	      1.15229224	      0.23450491	      0.53666945	      1.22431050	      0.20745685	      0.98109632	      1.22431050	      0.14431945	      0.98109632	      1.00825571	      0.11725877	      0.82283936	      0.93623744	      0.07215341	      0.62503833	      0.86421918	      0.90196817	      4.56459561	      6.40870373	      0.00000000	      0.00000000	     23.68263065	     -5.46539348	      1.18182540	     18.54159268	      3.64829063	     81.37619303	     31.15020531	      2.77139191	    -16.78437022	     12.86038489	     20.53344441	      5.13219753	     84.71009506	     30.01632305	     58.93595349	     -4.12402850	      8.73538968
      0.06122449	      7.21909621	     -4.97647004	     82.11464622	      0.50188278	      0.59500243	      0.67301649	      0.94101121	      4.92405672	     21.03179504	      0.61179352	      0.01067781	     24.78478508	    -12.89559607	      0.00000000	      6.81350494	     -5.73317413	     -3.48725910	     15.70148618	      0.27404263	     34.77466371	    -11.16199501	      0.00000000	      0.13699418	      0.42580650	      1.06263444	      0.25441190	      0.56632265	      1.12904910	      0.22506775	      1.03530593	      1.12904910	      0.15657065	      1.03530593	      0.92980514	      0.12721280	      0.86830462	      0.86339048	      0.07827848	      0.65957427	      0.79697583	      0.97853576	      4.81680832	      5.91005398	      0.00000000	      0.00000000	     23.97031089	     -5.60173614	      1.69090629	     19.84208672	      4.12816937	     85.69131020	     30.45671886	      3.77192162	    -14.75944219	     11.65656081	     20.13649456	      5.32569593	     84.30853879	     29.85551745	     60.01172676	     -3.73023365	      7.86982040
